<?xml version="1.0" encoding="UTF-8"?>
<svg version="1.1" xmlns="http://www.w3.org/2000/svg" width="512" height="512">
<path d="M0 0 C1.01790619 0.00215515 2.03581238 0.0043103 3.08456421 0.00653076 C17.69363523 0.05620146 32.02575853 0.30709809 46.375 3.3125 C47.34985352 3.51117676 48.32470703 3.70985352 49.32910156 3.91455078 C97.7109774 14.03517194 141.69928269 35.9516877 177.375 70.3125 C178.3640332 71.26068604 178.3640332 71.26068604 179.37304688 72.22802734 C188.86130305 81.37247479 197.6012044 90.66984009 205.375 101.3125 C206.23306152 102.46355017 207.09113451 103.61459177 207.94921875 104.765625 C213.98736829 112.95680614 219.34595521 121.47054105 224.375 130.3125 C224.73948242 130.94430176 225.10396484 131.57610352 225.47949219 132.22705078 C247.08534998 169.97532572 256.85198095 212.74189997 256.6875 255.9375 C256.68534485 256.95540619 256.6831897 257.97331238 256.68096924 259.02206421 C256.63129854 273.63113523 256.38040191 287.96325853 253.375 302.3125 C253.07698486 303.77478027 253.07698486 303.77478027 252.77294922 305.26660156 C242.65232806 353.6484774 220.7358123 397.63678269 186.375 433.3125 C185.74287598 433.97185547 185.11075195 434.63121094 184.45947266 435.31054688 C175.31502521 444.79880305 166.01765991 453.5387044 155.375 461.3125 C154.22394983 462.17056152 153.07290823 463.02863451 151.921875 463.88671875 C143.73224019 469.92427396 135.22961724 475.30707302 126.375 480.3125 C125.66778809 480.7146875 124.96057617 481.116875 124.23193359 481.53125 C101.09654164 494.5566741 75.92537591 503.30551461 49.9375 508.625 C49.21860596 508.77235596 48.49971191 508.91971191 47.7590332 509.0715332 C33.08339502 511.86090125 18.55831162 512.66142619 3.64770508 512.62817383 C0.70811513 512.6250221 -2.2304558 512.64854926 -5.16992188 512.67382812 C-18.54306192 512.71848737 -31.43916711 511.51301542 -44.625 509.3125 C-46.33055054 509.03031616 -46.33055054 509.03031616 -48.07055664 508.74243164 C-91.33802759 500.97044532 -132.38793216 480.98345309 -165.625 452.3125 C-166.37007813 451.67828125 -167.11515625 451.0440625 -167.8828125 450.390625 C-181.38779833 438.57948485 -194.05918743 425.82889772 -204.625 411.3125 C-205.48149066 410.16255169 -206.33826433 409.01281411 -207.1953125 407.86328125 C-213.23534209 399.67315742 -218.61867614 391.16870382 -223.625 382.3125 C-224.0271875 381.60528809 -224.429375 380.89807617 -224.84375 380.16943359 C-237.8691741 357.03404164 -246.61801461 331.86287591 -251.9375 305.875 C-252.08485596 305.15610596 -252.23221191 304.43721191 -252.3840332 303.6965332 C-255.35789088 288.05024391 -255.99800362 272.57681954 -255.9375 256.6875 C-255.93534485 255.66959381 -255.9331897 254.65168762 -255.93096924 253.60293579 C-255.88129854 238.99386477 -255.63040191 224.66174147 -252.625 210.3125 C-252.42632324 209.33764648 -252.22764648 208.36279297 -252.02294922 207.35839844 C-241.90232806 158.9765226 -219.9858123 114.98821731 -185.625 79.3125 C-184.99287598 78.65314453 -184.36075195 77.99378906 -183.70947266 77.31445312 C-174.56502521 67.82619695 -165.26765991 59.0862956 -154.625 51.3125 C-153.47394983 50.45443848 -152.32290823 49.59636549 -151.171875 48.73828125 C-142.98224019 42.70072604 -134.47961724 37.31792698 -125.625 32.3125 C-124.91778809 31.9103125 -124.21057617 31.508125 -123.48193359 31.09375 C-100.34654164 18.0683259 -75.17537591 9.31948539 -49.1875 4 C-48.46860596 3.85264404 -47.74971191 3.70528809 -47.0090332 3.5534668 C-31.36274391 0.57960912 -15.88931954 -0.06050362 0 0 Z " fill="#5E2FB0" transform="translate(255.625,-0.3125)"/>
<path d="M0 0 C0.87871429 -0.00322445 1.75742858 -0.00644889 2.66277057 -0.00977105 C4.1196946 -0.00744815 4.1196946 -0.00744815 5.60605145 -0.00507832 C6.63328766 -0.00734387 7.66052388 -0.00960943 8.71888846 -0.01194364 C12.18354056 -0.01830684 15.64815377 -0.01745279 19.11281109 -0.01662922 C21.58772107 -0.01961929 24.06263059 -0.02302146 26.53753948 -0.02680683 C32.57620384 -0.0347455 38.61485273 -0.03786219 44.65352086 -0.03841921 C49.56142236 -0.03889391 54.46932063 -0.04094634 59.37722111 -0.04411983 C73.28513529 -0.05293006 87.19304175 -0.05753872 101.10095874 -0.05678936 C102.22637643 -0.05672943 102.22637643 -0.05672943 103.37452984 -0.05666828 C104.12572221 -0.0566274 104.87691457 -0.05658652 105.65087035 -0.0565444 C117.82384798 -0.05613799 129.99679468 -0.06570528 142.16976336 -0.07980665 C154.66214012 -0.09416405 167.15450178 -0.10107716 179.646887 -0.10021287 C186.66307168 -0.09988065 193.67922394 -0.10263882 200.69540119 -0.11339092 C207.29367663 -0.12343755 213.8918952 -0.12316703 220.49017811 -0.11587429 C222.91497936 -0.11482552 225.33978483 -0.11720858 227.76457882 -0.12323475 C231.06899562 -0.13091638 234.37317325 -0.12633517 237.67758465 -0.11860371 C238.64217517 -0.12374727 239.6067657 -0.12889083 240.60058624 -0.13419026 C248.92935756 -0.09098587 248.92935756 -0.09098587 252.83229351 2.12863445 C257.08250113 6.85108736 257.95733094 9.34050229 257.97946453 15.63077068 C257.98314122 16.30611583 257.98681791 16.98146098 257.99060601 17.67727113 C258.0016612 19.95110556 258.00548979 22.22489433 258.00929546 24.49875164 C258.01555876 26.12476021 258.02220544 27.75076733 258.02920818 29.37677288 C258.04663098 33.80253101 258.05717356 38.22827833 258.06541371 42.65406227 C258.07056146 45.41836708 258.07663731 48.18266851 258.08292484 50.94697094 C258.10198102 59.59353286 258.1162109 68.24008622 258.12453681 76.88666511 C258.13430997 86.87181459 258.16062973 96.85674243 258.2010377 106.8418138 C258.23118778 114.55653566 258.24600465 122.27119396 258.24931782 129.9859736 C258.2516697 134.59503614 258.26064778 139.20386203 258.285779 143.81286144 C258.30904523 148.15000163 258.31329888 152.48674911 258.30301762 156.82393551 C258.30252178 158.41463686 258.30885636 160.00535744 258.32257366 161.59599972 C258.34027591 163.77065791 258.33319636 165.94390418 258.3200407 168.11856365 C258.32242906 169.33457634 258.32481741 170.55058903 258.32727814 171.80345058 C257.5882574 176.76800846 255.45518751 179.70857211 251.71765327 182.97898388 C247.3837129 184.70581084 243.29156167 184.54855925 238.66653728 184.52304363 C237.63335981 184.52913474 236.60018233 184.53522584 235.53569645 184.54150152 C232.06877703 184.55816943 228.60222336 184.5533502 225.13527203 184.54855633 C222.65168659 184.5558944 220.16810457 184.56447986 217.6845274 184.57422161 C211.63587478 184.5941611 205.58736631 184.59981676 199.53869361 184.59803373 C194.6222808 184.59672595 189.70589789 184.60053104 184.7894907 184.60795879 C183.37317227 184.61005799 181.95685383 184.61215559 180.54053539 184.61425161 C179.83559068 184.61529514 179.13064597 184.61633867 178.40433931 184.61741382 C165.07352954 184.63631403 151.74277481 184.63526657 138.4119572 184.62844449 C126.21713993 184.62286823 114.0225327 184.64369828 101.82776452 184.67680496 C89.30476172 184.71053879 76.78185955 184.72571075 64.25881046 184.72108793 C57.22860132 184.71884304 50.19858635 184.72408919 43.16841602 184.74898052 C36.55851294 184.7721847 29.94897441 184.76941471 23.3390379 184.749053 C20.9114266 184.74563343 18.48378613 184.75077251 16.05621433 184.76503658 C12.74530572 184.78315053 9.43589578 184.77053681 6.12503338 184.75009441 C5.16151111 184.76261226 4.19798884 184.77513011 3.20526892 184.78802729 C-1.16536986 184.73006382 -4.20232836 184.5741287 -7.68600273 181.77729321 C-11.73961184 177.4509802 -12.42028155 175.27564473 -12.44859028 169.4370451 C-12.45453252 168.75338399 -12.46047477 168.06972288 -12.46659708 167.36534476 C-12.48397182 165.0692696 -12.48698752 162.77340299 -12.48997211 160.47726727 C-12.49922854 158.83302648 -12.50927787 157.18879 -12.52006245 155.54455853 C-12.5463161 151.07333603 -12.55920165 146.60217361 -12.56808376 142.13088608 C-12.57394498 139.33724756 -12.58215458 136.54362548 -12.59109211 133.74999523 C-12.61844492 125.00892597 -12.63777619 116.26789424 -12.64549589 107.52678514 C-12.65445526 97.43737899 -12.68954034 87.34851504 -12.74749708 77.25927377 C-12.79074096 69.46043102 -12.81090501 61.66174074 -12.81357813 53.86277938 C-12.81567374 49.20496235 -12.82747664 44.54765488 -12.86321735 39.8899641 C-12.89619733 35.50668891 -12.90048254 31.12430571 -12.88293934 26.74095058 C-12.88139942 25.13453182 -12.89007388 23.52806494 -12.90985584 21.92176723 C-13.06798662 8.27843852 -13.06798662 8.27843852 -9.24815083 3.68057537 C-6.21870796 0.85254033 -4.12629069 0.00381429 0 0 Z " fill="#FCFCFE" transform="translate(133.167706489563,163.87136554718018)"/>
<path d="M0 0 C72.6 0 145.2 0 220 0 C220 44.22 220 88.44 220 134 C207.46 134 194.92 134 182 134 C181.01 130.04 180.02 126.08 179 122 C177.90841137 119.22211291 176.85053335 116.69188455 175.5 114.0625 C175.15743164 113.39210693 174.81486328 112.72171387 174.46191406 112.03100586 C167.7049937 99.39245266 157.16410716 88.06856004 144 82 C145.88210798 77.2465831 147.87943081 72.54484086 149.87890625 67.83984375 C153.79555711 57.91857135 153.21768121 45.68125304 149.3828125 35.8125 C143.87483032 24.60982438 136.09723782 17.17576587 124.5 12.5625 C113.4435938 9.28547239 101.03369674 9.30636957 90.609375 14.4609375 C79.65495448 20.92207775 72.34579503 29.315358 68.65625 41.65625 C66.06533161 54.85759607 68.06747967 66.7161906 75.01171875 78.1875 C76 80 76 80 76 82 C74.39801383 83.10791567 72.74017158 84.13542692 71.0625 85.125 C52.56497023 96.65038393 43.20101464 113.19594145 38 134 C25.46 134 12.92 134 0 134 C0 89.78 0 45.56 0 0 Z " fill="#5E2FB0" transform="translate(146,189)"/>
<path d="M0 0 C9.49171941 6.50742335 16.2109945 15.07264019 20.25 25.875 C20.25 27.195 20.25 28.515 20.25 29.875 C-10.77 29.875 -41.79 29.875 -73.75 29.875 C-71.78118427 18.06210562 -65.57185628 9.15285627 -56.109375 1.83203125 C-38.54645526 -9.93512498 -18.42945234 -10.78237668 0 0 Z " fill="#6234B1" transform="translate(282.75,294.125)"/>
<path d="M0 0 C4.76367564 2.64337296 7.64784095 6.32099042 9.75 11.3125 C10.46578616 17.46640182 10.44861771 23.13443521 6.75 28.3125 C2.38318803 32.69154393 -1.79617006 35.58881764 -8.0625 35.6875 C-13.91106483 35.54988671 -17.52490141 34.02344223 -21.75390625 29.81640625 C-26.19251012 24.74552262 -26.60918217 20.60100883 -26.5234375 14.1015625 C-26.04358169 9.20703328 -24.30771301 6.10832227 -20.53125 2.8125 C-14.11614417 -1.97164672 -7.44563466 -3.45143439 0 0 Z " fill="#6032B1" transform="translate(264.25,226.6875)"/>
</svg>
